<?xml version="1.0" standalone="no"?>
<!DOCTYPE svg PUBLIC "-//W3C//DTD SVG 1.1//EN" "http://www.w3.org/Graphics/SVG/1.1/DTD/svg11.dtd">
<svg width="2100px" height="680px" version="1.1" xmlns="http://www.w3.org/2000/svg" xmlns:xlink="http://www.w3.org/1999/xlink" xml:space="preserve" style="fill-rule:evenodd;clip-rule:evenodd;stroke-linejoin:round;stroke-miterlimit:1.41421;">
    <g>
        <g id="Layer1">
            <g>
                <path d="M39.3837,158.313C39.3837,117.097 52.9517,83.9451 80.0877,58.8571C107.224,33.7691 143.064,21.2251 187.608,21.2251C220.632,21.2251 249.816,32.1051 275.16,53.8651C284.632,38.2491 290.712,28.9051 293.4,25.8331C296.088,22.7611 298.968,21.2251 302.04,21.2251C306.904,21.2251 309.336,24.1691 309.336,30.0571L309.336,116.073C309.336,119.913 308.696,122.409 307.416,123.561C306.136,124.713 303.832,125.289 300.504,125.289C300.248,125.289 299.864,125.225 299.352,125.097C298.84,124.969 298.584,124.905 298.584,124.905L286.296,124.905C284.504,124.905 282.904,124.329 281.496,123.177C280.088,122.025 279.512,120.681 279.768,119.145C280.024,117.609 279.512,114.729 278.232,110.505C276.952,106.281 275.288,101.865 273.24,97.2571C267.864,85.4811 259.032,74.6651 246.744,64.8091C234.456,54.9531 218.456,50.0251 198.744,50.0251C182.104,50.0251 166.68,52.1371 152.472,56.3611C138.264,60.5851 125.464,66.9211 114.072,75.3691C102.68,83.8171 93.7837,95.0811 87.3837,109.161C80.9837,123.241 77.7837,139.625 77.7837,158.313C77.7837,174.953 80.3437,189.801 85.4637,202.857C90.5837,215.913 97.1757,226.409 105.24,234.345C113.304,242.281 122.84,248.745 133.848,253.737C144.856,258.729 155.672,262.185 166.296,264.105C176.92,266.025 187.992,266.985 199.512,266.985C220.504,266.985 238.68,261.481 254.04,250.473C269.4,239.465 277.976,225.001 279.768,207.081C280.28,202.473 281.112,199.593 282.264,198.441C283.416,197.289 286.168,196.713 290.52,196.713L299.352,196.713C303.192,196.713 305.752,197.225 307.032,198.249C308.312,199.273 308.952,201.577 308.952,205.161C308.952,227.689 297.88,248.489 275.736,267.561C253.592,286.633 224.088,296.169 187.224,296.169C171.608,296.169 156.632,294.377 142.296,290.793C127.96,287.209 114.52,281.705 101.976,274.281C89.4317,266.857 78.5517,257.769 69.3357,247.017C60.1197,236.265 52.8237,223.337 47.4477,208.233C42.0717,193.129 39.3837,176.489 39.3837,158.313Z" style="fill:white;fill-rule:nonzero;"/>
                <path d="M360.792,291.945L360.792,263.145L392.28,263.145L392.28,54.2491L360.792,54.2491L360.792,25.0651L461.016,25.0651L461.016,54.2491L429.912,54.2491L429.912,263.145L461.016,263.145L461.016,291.945L360.792,291.945Z" style="fill:white;fill-rule:nonzero;"/>
                <path d="M503.64,116.073L510.168,27.3691L768.216,27.3691L774.744,116.073L745.56,116.073C744.536,101.225 743.64,90.3451 742.872,83.4331C742.104,76.5211 741.144,71.0171 739.992,66.9211C738.84,62.8251 737.688,60.4571 736.536,59.8171C735.384,59.1771 733.4,58.6011 730.584,58.0891C723.928,56.8091 709.848,56.1691 688.344,56.1691L658.008,56.1691L658.008,263.145L700.248,263.145L700.248,291.945L578.136,291.945L578.136,263.145L620.376,263.145L620.376,56.1691L580.44,56.1691C556.888,56.1691 543.576,57.8331 540.504,61.1611C537.688,64.2331 535,82.5371 532.44,116.073L503.64,116.073Z" style="fill:white;fill-rule:nonzero;"/>
                <path d="M817.368,291.945L817.368,263.145L848.856,263.145L848.856,54.2491L817.368,54.2491L817.368,25.0651L917.592,25.0651L917.592,54.2491L886.488,54.2491L886.488,263.145L917.592,263.145L917.592,291.945L817.368,291.945Z" style="fill:white;fill-rule:nonzero;"/>
                <path d="M968.664,280.809L968.664,275.817C968.664,274.793 968.728,273.833 968.856,272.937C968.984,272.041 969.048,271.337 969.048,270.825C969.048,270.313 969.176,269.673 969.432,268.905C969.688,268.137 969.88,267.625 970.008,267.369C970.136,267.113 970.456,266.601 970.968,265.833C971.48,265.065 971.8,264.617 971.928,264.489C972.056,264.361 972.44,263.849 973.08,262.953C973.72,262.057 974.168,261.481 974.424,261.225L1137.24,54.2491L1090.01,54.2491C1057.24,54.2491 1035.74,55.0171 1025.5,56.5531C1020.38,57.3211 1016.6,58.8571 1014.17,61.1611C1011.74,63.4651 1009.62,68.6491 1007.83,76.7131C1006.04,84.7771 1004.76,97.1291 1003.99,113.769L974.808,113.769L978.648,25.0651L1177.56,25.0651C1182.68,25.0651 1185.94,25.9611 1187.35,27.7531C1188.76,29.5451 1189.46,33.5131 1189.46,39.6571C1189.46,44.5211 1187.42,49.5131 1183.32,54.6331L1021.66,260.841L1074.26,260.841C1108.57,260.841 1130.97,260.073 1141.46,258.537C1146.84,257.769 1150.74,255.977 1153.18,253.161C1155.61,250.345 1157.53,244.329 1158.94,235.113C1160.34,225.897 1161.69,210.537 1162.97,189.033L1191.77,189.033L1186.01,291.945L980.568,291.945C976.216,291.945 973.144,291.241 971.352,289.833C969.56,288.425 968.664,285.417 968.664,280.809Z" style="fill:white;fill-rule:nonzero;"/>
                <path d="M1242.46,291.945L1242.46,263.145L1272.41,263.145L1272.41,55.4011L1242.46,55.4011L1242.46,26.2171L1461.72,26.2171L1471.32,114.921L1442.14,114.921C1440.34,99.8171 1439,89.0011 1438.1,82.4731C1437.21,75.9451 1435.93,70.5051 1434.26,66.1531C1432.6,61.8011 1430.94,59.3051 1429.27,58.6651C1427.61,58.0251 1424.86,57.4491 1421.02,56.9371C1412.06,55.9131 1391.7,55.4011 1359.96,55.4011L1309.66,55.4011L1309.66,139.497L1331.54,139.497C1351.77,139.497 1363.61,138.985 1367.06,137.961C1370.52,136.937 1372.5,133.097 1373.02,126.441C1373.27,122.089 1373.4,115.561 1373.4,106.857L1373.4,103.785L1402.2,103.785L1402.2,204.393L1373.4,204.393L1373.4,200.937C1373.4,187.625 1372.95,179.177 1372.06,175.593C1371.16,172.009 1368.66,169.961 1364.57,169.449C1360.22,168.681 1349.21,168.297 1331.54,168.297C1329.24,168.297 1325.66,168.361 1320.79,168.489C1315.93,168.617 1312.22,168.681 1309.66,168.681L1309.66,263.145L1368.79,263.145C1392.86,263.145 1409.75,262.761 1419.48,261.993C1429.21,261.225 1435.29,260.137 1437.72,258.729C1440.15,257.321 1442.14,254.569 1443.67,250.473C1446.23,243.049 1449.82,223.977 1454.42,193.257L1483.61,193.257L1469.02,291.945L1242.46,291.945Z" style="fill:white;fill-rule:nonzero;"/>
                <path d="M1524.7,291.945L1524.7,263.145L1554.65,263.145L1554.65,54.2491L1524.7,54.2491L1524.7,25.0651L1583.06,25.0651C1586.65,25.0651 1589.21,25.5131 1590.74,26.4091C1592.28,27.3051 1594.33,29.4171 1596.89,32.7451L1749.34,230.889L1749.34,54.2491L1719.38,54.2491L1719.38,25.0651L1807.7,25.0651L1807.7,54.2491L1777.75,54.2491L1777.75,278.889C1777.75,281.705 1777.62,283.881 1777.37,285.417C1777.11,286.953 1776.22,288.425 1774.68,289.833C1773.14,291.241 1770.71,291.945 1767.38,291.945L1760.47,291.945C1756.89,291.945 1754.33,291.497 1752.79,290.601C1751.26,289.705 1749.21,287.593 1746.65,284.265L1583.06,71.9131L1583.06,263.145L1613.02,263.145L1613.02,291.945L1524.7,291.945Z" style="fill:white;fill-rule:nonzero;"/>
                <path d="M1861.46,286.953L1861.46,211.305C1861.72,207.721 1862.55,205.481 1863.96,204.585C1865.37,203.689 1867.61,203.241 1870.68,203.241L1878.74,203.241C1884.38,203.241 1887.83,204.137 1889.11,205.929C1889.62,206.697 1890.07,209.257 1890.46,213.609C1890.84,217.961 1892.12,223.081 1894.3,228.969C1896.47,234.857 1899.86,240.233 1904.47,245.097C1918.81,259.689 1940.82,266.985 1970.52,266.985C1989.21,266.985 2002.84,262.441 2011.42,253.353C2019.99,244.265 2024.28,233.961 2024.28,222.441C2024.28,213.225 2021.59,205.097 2016.22,198.057C2010.84,191.017 2004.44,185.705 1997.02,182.121C1991.64,179.561 1977.69,176.041 1955.16,171.561C1932.63,167.081 1918.17,163.561 1911.77,161.001C1898.2,155.625 1886.42,147.113 1876.44,135.465C1866.46,123.817 1861.46,109.801 1861.46,93.4171C1861.46,72.9371 1869.02,55.7851 1884.12,41.9611C1899.22,28.1371 1920.34,21.2251 1947.48,21.2251C1975.13,21.2251 1998.68,29.9291 2018.14,47.3371C2022.49,38.6331 2025.94,32.3611 2028.5,28.5211C2031.06,24.6811 2032.79,22.5051 2033.69,21.9931C2034.58,21.4811 2036.06,21.2251 2038.1,21.2251C2042.97,21.2251 2045.4,24.2971 2045.4,30.4411L2045.4,105.705C2045.14,109.545 2044.18,111.913 2042.52,112.809C2040.86,113.705 2036.44,114.153 2029.27,114.153L2026.58,114.153C2022.23,114.153 2019.29,113.257 2017.75,111.465C2017.5,110.953 2016.79,108.265 2015.64,103.401C2014.49,98.5371 2012.7,93.1611 2010.26,87.2731C2007.83,81.3851 2004.31,75.3691 1999.7,69.2251C1995.1,63.0811 1988.25,58.0251 1979.16,54.0571C1970.07,50.0891 1959.38,48.1051 1947.1,48.1051C1931.22,48.1051 1918.55,51.8811 1909.08,59.4331C1899.61,66.9851 1894.87,76.6491 1894.87,88.4251C1894.87,98.1531 1898.33,106.345 1905.24,113.001C1912.15,119.657 1919.96,124.265 1928.66,126.825C1933.02,128.105 1944.86,130.793 1964.18,134.889C1983.51,138.985 1995.74,141.801 2000.86,143.337C2015.96,148.201 2029.21,157.161 2040.6,170.217C2051.99,183.273 2057.69,199.145 2057.69,217.833C2057.69,239.849 2050.2,258.409 2035.22,273.513C2020.25,288.617 1998.68,296.169 1970.52,296.169C1936.98,296.169 1909.59,287.721 1888.34,270.825C1882.2,282.601 1878.17,289.769 1876.25,292.329C1874.33,294.889 1871.83,296.169 1868.76,296.169C1863.9,296.169 1861.46,293.097 1861.46,286.953Z" style="fill:white;fill-rule:nonzero;"/>
            </g>
            <g>
                <path d="M844.248,503.298C844.248,462.082 857.816,428.93 884.952,403.842C912.088,378.754 947.928,366.21 992.472,366.21C1025.5,366.21 1054.68,377.09 1080.02,398.85C1089.5,383.234 1095.58,373.89 1098.26,370.818C1100.95,367.746 1103.83,366.21 1106.9,366.21C1111.77,366.21 1114.2,369.154 1114.2,375.042L1114.2,461.058C1114.2,464.898 1113.56,467.394 1112.28,468.546C1111,469.698 1108.7,470.274 1105.37,470.274C1105.11,470.274 1104.73,470.21 1104.22,470.082C1103.7,469.954 1103.45,469.89 1103.45,469.89L1091.16,469.89C1089.37,469.89 1087.77,469.314 1086.36,468.162C1084.95,467.01 1084.38,465.666 1084.63,464.13C1084.89,462.594 1084.38,459.714 1083.1,455.49C1081.82,451.266 1080.15,446.85 1078.1,442.242C1072.73,430.466 1063.9,419.65 1051.61,409.794C1039.32,399.938 1023.32,395.01 1003.61,395.01C986.968,395.01 971.544,397.122 957.336,401.346C943.128,405.57 930.328,411.906 918.936,420.354C907.544,428.802 898.648,440.066 892.248,454.146C885.848,468.226 882.648,484.61 882.648,503.298C882.648,519.938 885.208,534.786 890.328,547.842C895.448,560.898 902.04,571.394 910.104,579.33C918.168,587.266 927.704,593.73 938.712,598.722C949.72,603.714 960.536,607.17 971.16,609.09C981.784,611.01 992.856,611.97 1004.38,611.97C1025.37,611.97 1043.54,606.466 1058.9,595.458C1074.26,584.45 1082.84,569.986 1084.63,552.066C1085.14,547.458 1085.98,544.578 1087.13,543.426C1088.28,542.274 1091.03,541.698 1095.38,541.698L1104.22,541.698C1108.06,541.698 1110.62,542.21 1111.9,543.234C1113.18,544.258 1113.82,546.562 1113.82,550.146C1113.82,572.674 1102.74,593.474 1080.6,612.546C1058.46,631.618 1028.95,641.154 992.088,641.154C976.472,641.154 961.496,639.362 947.16,635.778C932.824,632.194 919.384,626.69 906.84,619.266C894.296,611.842 883.416,602.754 874.2,592.002C864.984,581.25 857.688,568.322 852.312,553.218C846.936,538.114 844.248,521.474 844.248,503.298Z" style="fill:white;fill-rule:nonzero;"/>
                <path d="M1163.35,505.602C1163.35,463.618 1176.02,429.89 1201.37,404.418C1226.71,378.946 1260.63,366.21 1303.13,366.21C1345.11,366.21 1378.71,378.946 1403.93,404.418C1429.14,429.89 1441.75,463.618 1441.75,505.602C1441.75,546.306 1429.08,579.074 1403.74,603.906C1378.39,628.738 1344.47,641.154 1301.98,641.154C1260.25,641.154 1226.71,628.802 1201.37,604.098C1176.02,579.394 1163.35,546.562 1163.35,505.602ZM1201.75,498.69C1201.75,533.25 1210.71,560.258 1228.63,579.714C1246.55,599.17 1271.13,608.898 1302.36,608.898C1334.1,608.898 1358.87,599.106 1376.66,579.522C1394.46,559.938 1403.35,532.994 1403.35,498.69C1403.35,465.41 1394.07,440.13 1375.51,422.85C1356.95,405.57 1332.7,396.93 1302.74,396.93C1272.54,396.93 1248.15,405.506 1229.59,422.658C1211.03,439.81 1201.75,465.154 1201.75,498.69Z" style="fill:white;fill-rule:nonzero;"/>
                <path d="M1495.13,636.93L1495.13,608.13L1525.08,608.13L1525.08,399.234L1495.13,399.234L1495.13,370.05L1633.37,370.05C1678.94,370.05 1714.14,382.338 1738.97,406.914C1763.8,431.746 1776.22,464.642 1776.22,505.602C1776.22,542.978 1765.46,573.314 1743.96,596.61C1722.46,619.906 1693.27,633.09 1656.41,636.162C1651.29,636.674 1643.61,636.93 1633.37,636.93L1495.13,636.93ZM1561.56,608.13L1627.22,608.13C1646.42,607.362 1660.12,605.954 1668.31,603.906C1715.16,592.386 1738.58,559.746 1738.58,505.986C1738.58,434.818 1701.34,399.234 1626.84,399.234L1561.56,399.234L1561.56,608.13Z" style="fill:white;fill-rule:nonzero;"/>
                <path d="M1829.21,636.93L1829.21,608.13L1859.16,608.13L1859.16,400.386L1829.21,400.386L1829.21,371.202L2048.47,371.202L2058.07,459.906L2028.89,459.906C2027.1,444.802 2025.75,433.986 2024.86,427.458C2023.96,420.93 2022.68,415.49 2021.02,411.138C2019.35,406.786 2017.69,404.29 2016.02,403.65C2014.36,403.01 2011.61,402.434 2007.77,401.922C1998.81,400.898 1978.46,400.386 1946.71,400.386L1896.41,400.386L1896.41,484.482L1918.3,484.482C1938.52,484.482 1950.36,483.97 1953.82,482.946C1957.27,481.922 1959.26,478.082 1959.77,471.426C1960.02,467.074 1960.15,460.546 1960.15,451.842L1960.15,448.77L1988.95,448.77L1988.95,549.378L1960.15,549.378L1960.15,545.922C1960.15,532.61 1959.7,524.162 1958.81,520.578C1957.91,516.994 1955.42,514.946 1951.32,514.434C1946.97,513.666 1935.96,513.282 1918.3,513.282C1915.99,513.282 1912.41,513.346 1907.54,513.474C1902.68,513.602 1898.97,513.666 1896.41,513.666L1896.41,608.13L1955.54,608.13C1979.61,608.13 1996.5,607.746 2006.23,606.978C2015.96,606.21 2022.04,605.122 2024.47,603.714C2026.9,602.306 2028.89,599.554 2030.42,595.458C2032.98,588.034 2036.57,568.962 2041.18,538.242L2070.36,538.242L2055.77,636.93L1829.21,636.93Z" style="fill:white;fill-rule:nonzero;"/>
            </g>
            <g>
                <path d="M720.964,463.506C741.908,463.506 758.887,480.485 758.887,501.429C758.887,522.373 741.908,539.351 720.964,539.351C700.02,539.351 683.042,522.373 683.042,501.429C683.042,480.485 700.02,463.506 720.964,463.506Z" style="fill:white;"/>
            </g>
            <g>
                <path d="M520.227,463.506C541.171,463.506 558.15,480.485 558.15,501.429C558.15,522.373 541.171,539.351 520.227,539.351C499.283,539.351 482.305,522.373 482.305,501.429C482.305,480.485 499.283,463.506 520.227,463.506Z" style="fill:white;"/>
            </g>
            <g>
                <path d="M322.715,463.506C343.659,463.506 360.638,480.485 360.638,501.429C360.638,522.373 343.659,539.351 322.715,539.351C301.771,539.351 284.793,522.373 284.793,501.429C284.793,480.485 301.771,463.506 322.715,463.506Z" style="fill:white;"/>
            </g>
            <g>
                <path d="M124,463.506C144.944,463.506 161.922,480.485 161.922,501.429C161.922,522.373 144.944,539.351 124,539.351C103.056,539.351 86.0773,522.373 86.0773,501.429C86.0773,480.485 103.056,463.506 124,463.506Z" style="fill:white;"/>
            </g>
        </g>
    </g>
</svg>
